<?xml version="1.0" encoding="utf-8"?>
<!-- Generator: Adobe Illustrator 23.0.1, SVG Export Plug-In . SVG Version: 6.00 Build 0)  -->
<svg version="1.1" xmlns="http://www.w3.org/2000/svg" xmlns:xlink="http://www.w3.org/1999/xlink" x="0px" y="0px"
	 viewBox="0 0 1024 768" style="enable-background:new 0 0 1024 768;" xml:space="preserve">
<style type="text/css">
	.st0{fill:#0000FF;}
</style>
<g id="图层_2">
	<path class="st0" d="M460.29,434.15c-6.58-6.19-10.34-14.95-12.9-23.76c-5-17.22-11.57-49.18-3.83-65.28
		c7.75-16.1,27.84-59.61,44.86-55.89c18.51,4.05,33.49,67.89,50.49,76.47c12.03,6.07,26,6.37,39.34,5.3
		c3.17-0.25,6.65-0.49,9.22,1.44c2.03,1.53,3.03,4.09,3.82,6.56c8.82,27.61,15.62,74.85-3.95,95.73
		c-13.21,14.09-51.52,67.05-67.87,57.08c-11.06-6.75-13.51-78.87-23.55-86.65C484.48,436.29,471.8,444.99,460.29,434.15z"/>
</g>
<g id="图层_1">
	<g>
		<path d="M520,310c55.69,0,101,45.31,101,101s-45.31,101-101,101s-101-45.31-101-101S464.31,310,520,310 M520,304
			c-59.09,0-107,47.91-107,107s47.91,107,107,107s107-47.91,107-107S579.09,304,520,304L520,304z"/>
	</g>
</g>
</svg>
